<?xml version="1.0" standalone="no"?>
<!DOCTYPE svg PUBLIC "-//W3C//DTD SVG 20010904//EN"
 "http://www.w3.org/TR/2001/REC-SVG-20010904/DTD/svg10.dtd">
<svg version="1.0" xmlns="http://www.w3.org/2000/svg"
 width="1024.000000pt" height="1024.000000pt" viewBox="0 0 1024.000000 1024.000000"
 preserveAspectRatio="xMidYMid meet">

<g transform="translate(0.000000,1024.000000) scale(0.100000,-0.100000)"
fill="#000000" stroke="none">
<path d="M2911 8414 c-170 -46 -336 -173 -443 -339 -76 -118 -90 -168 -96
-337 l-4 -147 30 -31 c35 -35 69 -38 104 -10 38 30 47 63 50 206 4 126 5 134
38 199 40 80 138 175 229 224 65 35 168 61 242 61 56 0 93 25 109 75 15 45 6
72 -33 96 -39 23 -145 25 -226 3z"/>
<path d="M7122 8414 c-50 -35 -48 -116 3 -164 23 -22 35 -24 123 -26 144 -2
230 -40 333 -149 104 -109 137 -189 150 -364 5 -72 14 -130 21 -140 40 -51 95
-56 139 -12 28 28 29 33 29 118 -1 235 -57 379 -210 533 -125 127 -231 184
-393 210 -93 15 -169 13 -195 -6z"/>
<path d="M3813 8281 c-51 -13 -81 -38 -111 -91 -26 -47 -29 -50 -69 -50 -148
0 -309 -47 -462 -134 -272 -156 -437 -378 -529 -715 l-27 -96 -3 -1450 c-2
-903 1 -1501 7 -1585 20 -270 101 -486 255 -678 130 -162 351 -287 598 -337
75 -16 222 -17 1643 -19 1283 -1 1573 1 1635 13 180 33 381 119 509 218 132
102 283 330 344 518 59 180 56 79 58 1730 1 1605 2 1569 -46 1752 -30 114 -66
194 -136 303 -197 304 -524 480 -891 480 -112 0 -134 -8 -153 -53 -18 -43 -9
-82 27 -112 28 -24 36 -25 152 -25 134 0 194 -12 319 -62 103 -41 186 -95 276
-182 94 -91 152 -180 200 -309 80 -211 76 -146 76 -1297 l0 -1025 -83 -155
c-233 -433 -412 -609 -727 -716 l-110 -38 -405 -8 c-379 -8 -1371 2 -2140 21
-340 9 -356 11 -546 100 -219 103 -417 295 -547 530 -16 31 -48 77 -69 103
-21 26 -45 62 -52 80 -20 49 -27 608 -18 1483 l8 740 43 125 c55 159 98 234
186 328 139 148 253 216 455 273 35 10 209 12 771 10 l725 -3 32 36 c42 48 41
79 -2 122 l-34 34 -489 0 c-462 -1 -488 0 -491 17 -13 68 -25 94 -50 107 -38
19 -90 26 -129 17z m3680 -3676 c-2 -154 -7 -166 -138 -340 -136 -181 -217
-269 -310 -338 -95 -71 -165 -107 -288 -149 -91 -32 -95 -32 -312 -35 -121 -2
-807 0 -1525 5 l-1305 9 -88 26 c-108 33 -167 62 -279 139 -108 74 -176 143
-328 333 -131 164 -121 141 -134 318 -4 51 -2 67 7 65 7 -3 53 -52 102 -111
97 -116 154 -169 312 -295 200 -158 391 -222 668 -222 55 0 186 -7 290 -15
151 -12 387 -15 1150 -15 528 0 1039 4 1135 9 163 8 183 11 288 46 62 21 138
53 170 72 198 119 400 326 528 541 27 45 51 82 54 82 3 0 4 -56 3 -125z m-8
-500 c-36 -220 -79 -322 -202 -477 -133 -168 -349 -285 -585 -318 -101 -15
-3093 -5 -3184 10 -95 16 -165 39 -254 87 -143 75 -221 146 -318 289 -76 111
-120 236 -137 384 -7 65 -7 65 13 47 29 -27 137 -177 135 -188 -2 -5 3 -8 10
-6 6 1 11 -4 10 -10 -2 -7 3 -13 11 -13 8 0 18 -5 22 -12 5 -8 2 -9 -10 -5
-10 4 -15 3 -11 -3 3 -6 14 -10 24 -10 10 0 26 -10 37 -21 67 -75 244 -179
389 -228 186 -63 190 -63 1124 -59 465 2 1067 -1 1336 -6 709 -12 832 0 1050
108 198 98 402 281 521 470 15 24 29 44 30 43 1 -1 -4 -38 -11 -82z"/>
<path d="M7427 4053 c-4 -3 -7 -13 -7 -22 1 -13 3 -13 11 2 11 19 8 33 -4 20z"/>
<path d="M5278 8126 c-26 -19 -49 -82 -42 -111 3 -14 20 -36 36 -50 54 -46
137 -27 172 38 22 40 17 72 -18 110 -21 23 -33 27 -78 27 -29 0 -61 -7 -70
-14z"/>
<path d="M5682 8115 c-38 -32 -48 -72 -28 -118 18 -43 41 -57 99 -57 39 0 49
5 76 35 22 26 31 46 31 71 0 84 -110 126 -178 69z"/>
<path d="M6036 8109 c-39 -45 -35 -92 9 -136 32 -32 40 -35 76 -30 94 12 123
103 57 175 -17 17 -33 22 -69 22 -40 0 -51 -4 -73 -31z"/>
<path d="M6315 7684 c-119 -61 -170 -194 -126 -327 27 -80 64 -117 119 -117
28 0 33 3 22 10 -11 8 -7 8 15 3 52 -13 143 -6 178 14 43 25 94 94 108 146 35
132 -90 287 -232 287 -30 0 -67 -7 -84 -16z m139 -175 c14 -11 26 -30 26 -42
0 -34 -39 -67 -78 -67 -67 0 -95 60 -50 107 27 29 67 30 102 2z"/>
<path d="M3557 7666 c-166 -60 -230 -277 -119 -407 20 -24 31 -39 23 -34 -23
14 10 -30 41 -54 24 -19 29 -19 89 -7 l64 14 -50 4 c-46 4 -45 5 17 6 80 2
104 11 153 53 146 128 100 361 -84 424 -54 18 -84 18 -134 1z m112 -161 c47
-24 56 -83 20 -129 -16 -21 -29 -26 -63 -26 -60 0 -86 22 -86 71 0 31 7 47 29
70 33 32 58 36 100 14z"/>
<path d="M4913 7585 c-454 -103 -817 -453 -934 -901 -21 -78 -24 -112 -24
-284 0 -218 11 -289 70 -433 49 -124 111 -221 230 -363 145 -174 360 -306 603
-371 87 -24 115 -27 277 -27 171 0 186 1 300 32 260 69 520 239 634 415 22 34
62 94 87 132 65 97 97 171 130 305 27 107 29 129 29 305 -1 198 -6 243 -52
395 -49 166 -140 309 -292 460 -151 151 -326 255 -526 316 -82 25 -107 27
-280 30 -137 2 -207 -1 -252 -11z m457 -190 c144 -38 352 -159 466 -271 140
-138 233 -297 280 -480 35 -136 38 -355 6 -484 -25 -102 -73 -218 -132 -320
-54 -94 -228 -272 -316 -322 -82 -48 -239 -104 -343 -124 -109 -21 -353 -14
-451 11 -345 91 -655 423 -731 785 -59 280 2 599 150 797 79 105 255 259 371
325 53 29 174 76 245 95 73 18 370 11 455 -12z"/>
<path d="M5228 7403 c7 -3 16 -2 19 1 4 3 -2 6 -13 5 -11 0 -14 -3 -6 -6z"/>
<path d="M5063 7190 c-18 -6 -35 -14 -38 -19 -8 -13 -9 -141 -1 -149 4 -3 67
-9 140 -12 l133 -5 94 -47 c221 -109 354 -300 366 -524 8 -129 -9 -210 -67
-329 -58 -120 -127 -195 -228 -248 -112 -58 -188 -77 -316 -77 -198 0 -325 46
-436 159 -82 83 -121 142 -161 244 -39 101 -49 164 -49 299 0 96 -2 108 -19
118 -56 30 -128 -8 -149 -78 -18 -60 -14 -196 8 -287 42 -169 162 -362 281
-451 285 -213 580 -250 864 -107 143 73 215 135 292 251 124 189 171 345 159
527 -7 112 -26 186 -75 289 -98 208 -316 377 -551 426 -122 25 -207 32 -247
20z"/>
<path d="M4830 7137 c-86 -29 -170 -80 -231 -141 -58 -57 -69 -88 -44 -116 28
-31 98 -26 165 10 72 40 177 90 188 90 4 0 18 9 31 21 19 18 21 29 19 90 l-3
69 -30 -1 c-16 0 -59 -10 -95 -22z"/>
<path d="M4696 6674 c-28 -43 -50 -126 -41 -155 8 -24 56 -49 92 -48 24 0 36
13 81 80 28 44 52 86 52 93 0 18 -69 54 -117 62 -40 6 -42 5 -67 -32z"/>
<path d="M6813 7096 l-28 -24 0 -854 c0 -772 -2 -858 -17 -907 -28 -90 -70
-160 -136 -232 -99 -107 -167 -140 -339 -164 -66 -10 -111 -12 -126 -6 -23 9
-60 48 -83 87 -22 37 -281 45 -474 14 -244 -40 -577 -38 -975 6 -137 15 -403
19 -420 6 -6 -4 -19 -24 -30 -45 -36 -68 -49 -77 -118 -77 -180 1 -300 46
-411 155 -49 49 -76 88 -106 148 -64 133 -70 173 -71 502 -1 160 -4 448 -8
641 -6 327 -7 353 -25 373 -41 45 -139 11 -151 -53 -4 -19 -4 -40 0 -46 4 -7
11 -303 15 -659 8 -688 5 -654 59 -789 60 -150 175 -274 323 -346 137 -68 195
-80 378 -80 128 -1 160 2 181 15 43 28 156 42 234 28 80 -14 290 -5 333 14 18
8 109 12 276 14 136 1 251 5 254 8 8 8 74 6 69 -3 -3 -4 29 -7 71 -8 43 0 172
-8 287 -17 437 -36 589 -41 662 -23 92 22 201 77 260 130 104 94 232 323 254
455 7 44 10 344 10 886 l0 820 -31 28 c-38 34 -79 35 -117 3z"/>
<path d="M7188 7089 c-43 -25 -43 -13 -48 -964 -5 -886 -6 -912 -27 -982 -33
-117 -127 -277 -209 -359 -58 -59 -186 -142 -283 -185 -125 -56 -189 -63 -431
-53 -113 5 -698 9 -1300 9 -879 0 -1104 3 -1140 14 -102 30 -295 146 -387 234
-70 66 -114 126 -159 217 -68 138 -66 120 -73 992 -6 770 -6 788 -26 807 -33
32 -66 35 -104 9 l-34 -23 -3 -770 c-2 -486 0 -794 7 -835 16 -103 55 -219 97
-290 119 -200 448 -463 653 -521 33 -9 229 -13 809 -14 421 -1 785 -5 810 -8
31 -5 39 -4 25 2 -14 7 23 9 115 9 100 -1 122 -3 85 -9 -27 -4 27 -4 120 -1
94 4 303 5 465 5 162 -1 320 2 351 7 123 19 351 144 488 268 108 96 226 282
282 440 36 103 39 184 39 1083 l1 882 -22 24 c-24 25 -70 30 -101 12z"/>
<path d="M6556 6432 c-74 -10 -89 -67 -85 -324 4 -219 12 -246 67 -242 53 3
69 13 76 46 3 17 6 141 6 277 0 273 5 253 -64 243z"/>
<path d="M3683 6344 c-17 -7 -34 -18 -38 -23 -10 -17 -8 -307 3 -326 5 -10 22
-19 37 -21 46 -5 70 11 83 54 12 40 16 269 6 310 -7 26 -41 28 -91 6z"/>
<path d="M3705 5619 c-41 -36 -45 -71 -20 -177 27 -115 87 -202 169 -244 33
-17 54 -19 138 -16 98 3 100 3 129 36 30 34 36 63 20 105 -12 32 -39 40 -126
39 -83 -2 -104 9 -144 79 l-28 50 15 61 c15 60 15 61 -7 80 -38 30 -103 24
-146 -13z"/>
<path d="M6401 5632 c-11 -8 -10 -13 7 -30 52 -52 46 -150 -13 -209 l-33 -33
-111 0 -111 0 -11 -27 c-6 -16 -8 -45 -5 -65 15 -93 47 -114 158 -104 137 13
203 63 274 209 39 79 44 99 44 157 0 89 -15 104 -113 108 -40 1 -78 -1 -86 -6z"/>
<path d="M6058 4363 c7 -3 16 -2 19 1 4 3 -2 6 -13 5 -11 0 -14 -3 -6 -6z"/>
<path d="M2389 3701 c-28 -29 -29 -32 -29 -129 0 -270 91 -468 284 -614 111
-83 211 -123 351 -137 130 -13 178 6 191 74 13 70 -35 114 -121 115 -197 1
-333 69 -430 216 -65 98 -85 170 -85 313 l0 123 -34 34 c-44 44 -86 46 -127 5z"/>
<path d="M7771 3702 c-27 -27 -29 -35 -35 -138 -4 -60 -11 -134 -16 -164 -24
-137 -140 -278 -285 -347 -69 -32 -88 -37 -192 -43 -111 -7 -116 -8 -139 -36
-33 -41 -32 -93 3 -135 l27 -32 96 6 c116 7 201 33 303 91 139 80 167 108 294
309 47 75 81 194 94 336 11 117 10 124 -8 150 -16 20 -30 27 -67 29 -40 3 -50
-1 -75 -26z"/>
</g>
</svg>
